<?xml version="1.0" encoding="UTF-8"?>
<svg width="65px" height="154px" viewBox="0 0 65 154" version="1.1" xmlns="http://www.w3.org/2000/svg" xmlns:xlink="http://www.w3.org/1999/xlink">
    <!-- Generator: Sketch 55.2 (78181) - https://sketchapp.com -->
    <title>Asset 1</title>
    <desc>Created with Sketch.</desc>
    <defs>
        <linearGradient x1="27.0285554%" y1="36.4968401%" x2="63.9554222%" y2="65.0899368%" id="linearGradient-1">
            <stop stop-color="#BDF7A3" offset="0%"></stop>
            <stop stop-color="#009EE0" offset="100%"></stop>
        </linearGradient>
        <linearGradient x1="65.857848%" y1="18.4847102%" x2="27.9374645%" y2="105.568234%" id="linearGradient-2">
            <stop stop-color="#BDF7A3" offset="0%"></stop>
            <stop stop-color="#009EE0" offset="100%"></stop>
        </linearGradient>
        <linearGradient x1="36.026169%" y1="4.79233227%" x2="63.9993773%" y2="112.140575%" id="linearGradient-3">
            <stop stop-color="#BDF7A3" offset="0%"></stop>
            <stop stop-color="#009EE0" offset="100%"></stop>
        </linearGradient>
        <linearGradient x1="-12.7860027%" y1="-60.1935484%" x2="85.0605653%" y2="111.548387%" id="linearGradient-4">
            <stop stop-color="#BDF7A3" offset="0%"></stop>
            <stop stop-color="#009EE0" offset="100%"></stop>
        </linearGradient>
        <linearGradient x1="-29.8955614%" y1="-129.573935%" x2="192.689295%" y2="370.927318%" id="linearGradient-5">
            <stop stop-color="#BDF7A3" offset="0%"></stop>
            <stop stop-color="#009EE0" offset="100%"></stop>
        </linearGradient>
        <linearGradient x1="-30%" y1="-129.439252%" x2="192.926829%" y2="370.560748%" id="linearGradient-6">
            <stop stop-color="#BDF7A3" offset="0%"></stop>
            <stop stop-color="#009EE0" offset="100%"></stop>
        </linearGradient>
    </defs>
    <g id="Page-1" stroke="none" stroke-width="1" fill="none" fill-rule="evenodd">
        <g id="Desktop-HD" transform="translate(-354.000000, -195.000000)">
            <g id="Asset-1" transform="translate(354.000000, 195.000000)">
                <g id="Group-16" opacity="0.200000003" transform="translate(17.000000, 88.000000)">
                    <path d="M9.41363167,0.325493745 C9.07804201,0.774494979 3.99385858,4.22364083 3.99385858,4.22364083 C3.0412283,5.9661918 2.38511693,7.92312095 2.064218,9.97902029 C1.39942095,12.9276618 0.90047548,15.9279435 0.57084399,18.959045 C1.22132494,17.697956 1.96252918,16.5095646 2.78573578,15.4078534 C2.19830783,19.102866 1.86158442,22.8503577 1.77896679,26.6124751 C1.75448469,29.809144 1.93964601,33.0030965 2.33268973,36.1639559 C2.70081535,34.404153 3.17183998,32.6785887 3.74216633,31.0004417 C4.11799211,35.1802504 4.90093317,39.2909126 6.0745145,43.2459299 C7.88669869,49.0217186 9.24583684,52.0422723 9.14515994,51.2259064 C9.42531602,49.0649881 9.82900248,46.9304579 10.3532827,44.8378434 C10.9534681,49.9962924 12.1334715,55.0299911 13.8601947,59.7977482 C14.8501843,62.410119 15.63882,64.4102154 16.2596608,65.9204923 C16.8469428,64.4306246 17.6355785,62.410119 18.625568,59.7977482 C20.3042657,54.9798877 21.4333597,49.9054162 21.9814646,44.7153885 C22.5252341,46.79873 22.9457943,48.9267109 23.2399259,51.0830424 C23.1560285,51.8994083 24.4816076,48.8788545 26.2770124,43.0622476 C27.4183942,39.1016791 28.173056,34.9916481 28.5254631,30.8167594 C29.1085144,32.4862327 29.5908026,34.2051499 29.9684987,35.9598645 C30.3346383,32.7894238 30.4973313,29.5891282 30.4551037,26.3879745 C30.3575358,22.6296992 29.9982881,18.888241 29.3812168,15.2037619 C30.2109516,16.3017368 30.9630992,17.4828475 31.6296675,18.7345444 C31.2638787,15.7045712 30.742698,12.7053791 30.0691756,9.75451967 C29.7290888,7.71155092 29.0620345,5.76986205 28.105976,4.0399585 C28.105976,4.0399585 23.0721311,0.63163095 22.6694235,0.182629715 L16.125425,0.0601748332 L9.41363167,0.325493745 Z" id="flame6" fill="#FF792E"></path>
                    <path d="M4.90065093,8.20972031 L6.85281822,5.57027425 L5.14039077,15.2891648 C4.79790528,17.335247 4.52391689,19.5450158 4.33554987,21.7138629 L5.24313642,18.9516519 L6.15072297,30.1232609 C6.48343441,34.0531922 7.2314399,37.916939 8.37687865,41.6222429 L8.71936414,42.6657448 L11.5962423,30.798468 L12.8976871,43.8729334 C13.4507002,48.820625 14.6044513,53.6455558 16.322542,58.1955089 C16.4595362,58.5433429 16.5965304,58.8911768 16.7164003,59.2390108 L17.1273829,58.1955089 C18.7915399,53.6354129 19.8932575,48.8109845 20.3981193,43.8729334 L21.6139428,30.7780072 L24.559318,42.645284 C24.679188,42.2974501 24.7819336,41.9496161 24.9018035,41.5813213 C26.0251181,37.8727764 26.7501258,34.008935 27.0594621,30.0823392 L27.8985516,18.9107303 L28.8061381,21.6524805 C28.6180539,19.4952598 28.3379935,17.3509074 27.9670487,15.2277823 L26.2546212,5.5293526 L28.241037,8.10741619 C28.0024598,7.20470576 27.6987926,6.32842581 27.3334505,5.48843096 C26.5286096,4.95644958 25.7237687,4.4244682 24.9360521,3.872026 C24.1483354,3.31958381 23.3606188,2.8489849 22.5557779,2.21469941 L16.6136547,1.96916954 L10.6201586,2.21469941 C9.81531771,2.8489849 8.78786124,3.52419203 8.25700873,3.89248683 L5.8596103,5.50889178 C5.46998431,6.37136178 5.14892494,7.27559854 4.90065093,8.20972031 Z" id="flame5" fill="#FFAE4D"></path>
                    <path d="M16.1265791,50.6485346 C16.609815,48.5241232 16.9617038,46.3617322 17.1795145,44.1781439 L19.9171466,15.2359835 L23.953399,31.093576 L23.953399,31.093576 L25.0414322,16.71493 L23.2865399,7.26610541 L23.1461485,7.26610541 L21.3035115,5.95148634 L16.0388345,5.78715896 L10.7741575,5.99256819 C10.1599452,6.44446849 9.51063502,6.85528695 8.87887378,7.28664633 L8.72093347,7.28664633 L7.15907928,16.427357 L7.15907928,17.0641256 L8.17691684,31.2579034 L12.1078757,15.37977 L15.020997,44.1986848 C15.2591025,46.3764645 15.6285524,48.531796 16.1265791,50.6485346 L16.1265791,50.6485346 Z" id="flame4" fill="#FFFFFF"></path>
                </g>
                <g id="Group-16" transform="translate(19.000000, 88.000000)">
                    <path d="M7.46649175,0.185192982 C7.18313343,0.498596491 2.89025487,2.90610526 2.89025487,2.90610526 C2.08589245,4.12240835 1.53189858,5.48834772 1.26094453,6.92336842 C0.699616826,8.98152447 0.278327479,11.0757254 -1.42108547e-14,13.1914386 C0.549239765,12.3111967 1.17508261,11.4816978 1.87016492,10.7127018 C1.37416455,13.2918259 1.08984894,15.9075805 1.02008996,18.5335439 C0.999418266,20.7648233 1.15576099,22.9942068 1.48763118,25.2004912 C1.79846154,23.9721462 2.19617567,22.7676999 2.67773613,21.5963509 C2.9950682,24.5138634 3.65615192,27.3831115 4.64707646,30.1437193 C6.17721139,34.1752281 7.32481259,36.2835789 7.2398051,35.7137544 C7.47635755,34.2054302 7.81721404,32.7155251 8.25989505,31.2548772 C8.76666727,34.855482 9.76301434,38.3690109 11.2209895,41.6969123 C12.0568966,43.5203509 12.7227886,44.9164211 13.2470015,45.9705965 C13.7428786,44.9306667 14.4087706,43.5203509 15.2446777,41.6969123 C16.662102,38.3340387 17.6154632,34.7920503 18.0782609,31.1694035 C18.5373978,32.6235789 18.8925018,34.1089126 19.1408546,35.6140351 C19.070015,36.1838596 20.1892804,34.0755088 21.7052474,30.0155088 C22.6689839,27.2510262 23.3061898,24.3822186 23.6037481,21.4681404 C24.096053,22.6334351 24.5032776,23.8332418 24.8221889,25.0580351 C25.1313423,22.8450629 25.2687138,20.611252 25.2330585,18.3768421 C25.1506761,15.7535605 24.8473419,13.1420173 24.3263118,10.5702456 C25.0269063,11.3366337 25.6619893,12.1610506 26.2248126,13.0347368 C25.9159553,10.9198112 25.4758915,8.82637083 24.9071964,6.76666667 C24.6200409,5.34067153 24.0568072,3.98536991 23.2495502,2.77789474 C23.2495502,2.77789474 18.9991754,0.398877193 18.6591454,0.0854736842 L13.1336582,-4.97379915e-14 L7.46649175,0.185192982 Z" id="flame3" fill="#FF792E"></path>
                    <path d="M3.4428036,6.15410526 L5.05794603,4.31642105 L3.64115442,11.0830877 C3.3577961,12.5076491 3.13110945,14.0461754 2.97526237,15.5562105 L3.72616192,13.6330526 L4.47706147,21.4111579 C4.75233315,24.1473278 5.37120194,26.8374174 6.31889055,29.417193 L6.60224888,30.1437193 L8.98245877,21.8812632 L10.0592204,30.9842105 C10.5167605,34.4289844 11.4713265,37.7882874 12.8928036,40.9561404 C13.0061469,41.1983158 13.1194903,41.4404912 13.2186657,41.6826667 L13.5586957,40.9561404 C14.9355502,37.7812255 15.8470658,34.4222723 16.2647676,30.9842105 L17.2706897,21.8670175 L19.7075712,30.1294737 C19.8067466,29.8872982 19.8917541,29.6451228 19.9909295,29.3887018 C20.9203135,26.8066697 21.5201549,24.1165142 21.776087,21.3826667 L22.4703148,13.6045614 L23.2212144,15.5134737 C23.0656013,14.0115334 22.833891,12.5185525 22.5269865,11.0403509 L21.1101949,4.28792982 L22.7536732,6.08287719 C22.5562842,5.45437535 22.3050425,4.84427543 22.0027736,4.2594386 C21.3368816,3.88905263 20.6709895,3.51866667 20.0192654,3.13403509 C19.3675412,2.74940351 18.7158171,2.42175439 18.049925,1.98014035 L13.1336582,1.80919298 L8.17488756,1.98014035 C7.5089955,2.42175439 6.65892054,2.89185965 6.21971514,3.1482807 L4.2362069,4.27368421 C3.91384648,4.87416911 3.64821524,5.50373364 3.4428036,6.15410526 Z" id="flame2" fill="#FFAE4D"></path>
                    <path d="M13.2044978,35.2009123 C13.5946325,33.7275829 13.8787258,32.2279138 14.0545727,30.7135439 L16.2647676,10.6414737 L19.5233883,21.6390877 L19.5233883,21.6390877 L20.4017991,11.6671579 L18.9850075,5.11417544 L18.8716642,5.11417544 L17.384033,4.20245614 L13.1336582,4.08849123 L8.88328336,4.23094737 C8.3874063,4.54435088 7.8631934,4.82926316 7.35314843,5.12842105 L7.22563718,5.12842105 L5.96469265,11.4677193 L5.96469265,11.9093333 L6.78643178,21.7530526 L9.96004498,10.741193 L12.311919,30.7277895 C12.5041507,32.238131 12.8024217,33.7329042 13.2044978,35.2009123 L13.2044978,35.2009123 Z" id="flame1" fill="#FFFFFF"></path>
                </g>
                <path d="M44.2516734,84 L32.5071179,84.5223529 L20.7483266,84 C17.504798,87.1390073 15.7825193,91.511851 16.0220327,96 L48.9779673,96 C49.2174807,91.511851 47.495202,87.1390073 44.2516734,84 L44.2516734,84 Z" id="Path" fill="url(#linearGradient-1)" fill-rule="nonzero"></path>
                <path d="M48.3076364,52 C48.3076364,52 48.4181818,58.6745778 53.2683636,61.1428571 C58.1185455,63.6111365 64.8894545,67.817435 65,84 L46,84 L48.3076364,52 Z" id="Path" fill="url(#linearGradient-2)" fill-rule="nonzero"></path>
                <path d="M16.6318841,52 C16.6318841,52 16.5217391,58.6745778 11.6891304,61.1428571 C6.85652174,63.6111365 0.110144928,67.817435 0,84 L19,84 L16.6318841,52 Z" id="Path" fill="url(#linearGradient-3)" fill-rule="nonzero"></path>
                <path d="M52.5985664,83.1176178 C53.5233795,68.771566 54.6938461,22.5004977 33.0329889,0 C10.8952749,23.0922362 12.528148,68.771566 13.4529611,83.1176178 C13.5444199,85.2618964 15.2926898,86.9637558 17.4412177,87 L48.6103099,87 C50.7618313,86.9709499 52.5142312,85.26507 52.5985664,83.1176178 Z" id="Path" fill="#F9FBFC" fill-rule="nonzero"></path>
                <circle id="Oval" fill="url(#linearGradient-4)" fill-rule="nonzero" cx="33" cy="38" r="11"></circle>
                <circle id="Oval" fill="url(#linearGradient-5)" fill-rule="nonzero" cx="32.5" cy="58.5" r="5.5"></circle>
                <circle id="Oval" fill="url(#linearGradient-6)" fill-rule="nonzero" cx="33" cy="71" r="3"></circle>
            </g>
        </g>
    </g>
</svg>